<svg width="150px" height="150px" viewBox="0 0 230 198" fill="none" xmlns="http://www.w3.org/2000/svg">
<mask id="mask0_76_144" style="mask-type:alpha" maskUnits="userSpaceOnUse" x="0" y="0" width="230" height="198">
<rect width="230" height="198" fill="#D9D9D9"/>
</mask>
<g mask="url(#mask0_76_144)">
<path d="M166.428 185.614C157.582 182.91 154.53 177.075 157.271 168.109L158.358 164.553L169.116 167.842L167.508 173.102C167.198 174.118 167.153 174.976 167.375 175.675C167.597 176.375 168.146 176.859 169.023 177.127C170.577 177.602 171.71 176.674 172.423 174.343C173.02 172.391 173.056 170.811 172.531 169.605C172.013 168.379 171.303 167.138 170.402 165.882L166.037 159.744C164.67 157.801 163.756 155.91 163.295 154.07C162.834 152.229 163.026 149.925 163.873 147.155C164.659 144.585 165.915 142.649 167.642 141.347C169.389 140.051 171.393 139.303 173.655 139.101C175.937 138.905 178.254 139.167 180.605 139.886C189.291 142.541 192.309 148.203 189.66 156.869L189.404 157.706L178.347 154.325L178.867 152.622C179.142 151.725 179.247 150.81 179.184 149.876C179.141 148.948 178.671 148.346 177.775 148.072C176.261 147.609 175.26 148.175 174.773 149.769C174.279 151.383 174.53 152.843 175.525 154.149L180.679 161.018C182.294 163.146 183.486 165.449 184.253 167.928C185.04 170.412 184.913 173.358 183.871 176.765C182.58 180.988 180.391 183.837 177.304 185.312C174.237 186.792 170.612 186.893 166.428 185.614Z" fill="black"/>
<path d="M82.375 184.5C79.0417 184.5 76.3854 183.875 74.4062 182.625C72.4271 181.375 71.0104 179.573 70.1562 177.219C69.3021 174.865 68.875 172.031 68.875 168.719V149.875C68.875 145.521 70.125 142.229 72.625 140C75.125 137.75 78.5625 136.625 82.9375 136.625C91.9375 136.625 96.4375 141.042 96.4375 149.875V153.281C96.4375 157.406 96.3958 160.177 96.3125 161.594H80.0625V170.656C80.0625 171.49 80.1146 172.312 80.2188 173.125C80.3229 173.917 80.5521 174.573 80.9062 175.094C81.2812 175.615 81.875 175.875 82.6875 175.875C83.8542 175.875 84.5833 175.375 84.875 174.375C85.1667 173.354 85.3125 172.031 85.3125 170.406V165.906H96.4375V168.562C96.4375 172.062 96 175 95.125 177.375C94.2708 179.729 92.8125 181.51 90.75 182.719C88.7083 183.906 85.9167 184.5 82.375 184.5ZM80 156.031H85.3125V149.719C85.3125 148.031 85.1042 146.823 84.6875 146.094C84.2708 145.344 83.6458 144.969 82.8125 144.969C81.9167 144.969 81.2188 145.323 80.7188 146.031C80.2396 146.74 80 147.969 80 149.719V156.031ZM107.966 184L102.31 137.125H111.904L114.998 162.312L117.716 137.125H128.435L131.654 162.312L134.248 137.125H143.873L138.154 184H126.373L122.998 157.406L120.06 184H107.966Z" fill="black"/>
<path d="M22.6562 187V104.5H39.625L47.2187 144.016V104.5H63.1562V187H47.0312L38.7812 145.75V187H22.6562Z" fill="black"/>
<mask id="mask1_76_144" style="mask-type:alpha" maskUnits="userSpaceOnUse" x="2" y="67" width="208" height="100">
<rect x="2" y="67" width="208" height="100" fill="#D9D9D9"/>
</mask>
<g mask="url(#mask1_76_144)">
<path d="M69.7812 88.5C67.1771 88.5 65.1875 87.8958 63.8125 86.6875C62.4583 85.4792 61.5312 83.8229 61.0312 81.7188C60.5312 79.6146 60.2812 77.2292 60.2812 74.5625C60.2812 71.7083 60.5625 69.375 61.125 67.5625C61.6875 65.7292 62.6458 64.2292 64 63.0625C65.375 61.8958 67.2604 60.9062 69.6562 60.0938L76.5938 57.7188V52.9062C76.5938 50.3854 75.7708 49.125 74.125 49.125C72.625 49.125 71.875 50.1458 71.875 52.1875V55H61C60.9792 54.8333 60.9688 54.625 60.9688 54.375C60.9688 54.1042 60.9688 53.8021 60.9688 53.4688C60.9688 48.8021 62.0625 45.5 64.25 43.5625C66.4583 41.6042 69.9479 40.625 74.7188 40.625C77.2188 40.625 79.4583 41.0729 81.4375 41.9688C83.4167 42.8438 84.9792 44.1458 86.125 45.875C87.2917 47.6042 87.875 49.7396 87.875 52.2812V88H76.75V82.4375C76.2083 84.3958 75.3125 85.8958 74.0625 86.9375C72.8125 87.9792 71.3854 88.5 69.7812 88.5ZM74.1875 79.8125C75.1042 79.8125 75.7292 79.4271 76.0625 78.6562C76.3958 77.8854 76.5625 77.0521 76.5625 76.1562V63.0938C75.0208 63.7188 73.8229 64.5104 72.9688 65.4688C72.1146 66.4062 71.6875 67.7917 71.6875 69.625V75.6562C71.6875 78.4271 72.5208 79.8125 74.1875 79.8125ZM108.841 88.5C103.591 88.5 99.8621 87.1562 97.6538 84.4688C95.4663 81.7812 94.3725 77.8333 94.3725 72.625V58.1875C94.3725 54.2708 94.7892 51.0104 95.6225 48.4062C96.4558 45.8021 97.9142 43.8542 99.9975 42.5625C102.081 41.2708 104.977 40.625 108.685 40.625C111.268 40.625 113.581 41.0833 115.623 42C117.685 42.9167 119.31 44.2604 120.498 46.0312C121.685 47.8021 122.279 49.9688 122.279 52.5312V59.6875H110.873V53.125C110.873 52.0417 110.716 51.1354 110.404 50.4062C110.091 49.6562 109.414 49.2812 108.373 49.2812C106.539 49.2812 105.623 50.5833 105.623 53.1875V75.9062C105.623 76.8646 105.831 77.75 106.248 78.5625C106.664 79.3542 107.352 79.75 108.31 79.75C109.289 79.75 109.966 79.3646 110.341 78.5938C110.737 77.8021 110.935 76.8854 110.935 75.8438V67.9688H122.279V76.1562C122.279 78.7396 121.695 80.9583 120.529 82.8125C119.383 84.6458 117.8 86.0521 115.779 87.0312C113.758 88.0104 111.445 88.5 108.841 88.5ZM128.745 88V33H139.808V57.2812L145.183 41.125H156.776L149.745 61.5L158.683 88H146.776L139.808 65.9062V88H128.745ZM175.868 88.5C172.534 88.5 169.878 87.875 167.899 86.625C165.92 85.375 164.503 83.5729 163.649 81.2188C162.795 78.8646 162.368 76.0312 162.368 72.7188V53.875C162.368 49.5208 163.618 46.2292 166.118 44C168.618 41.75 172.055 40.625 176.43 40.625C185.43 40.625 189.93 45.0417 189.93 53.875V57.2812C189.93 61.4062 189.888 64.1771 189.805 65.5938H173.555V74.6562C173.555 75.4896 173.607 76.3125 173.711 77.125C173.815 77.9167 174.045 78.5729 174.399 79.0938C174.774 79.6146 175.368 79.875 176.18 79.875C177.347 79.875 178.076 79.375 178.368 78.375C178.659 77.3542 178.805 76.0312 178.805 74.4062V69.9062H189.93V72.5625C189.93 76.0625 189.493 79 188.618 81.375C187.763 83.7292 186.305 85.5104 184.243 86.7188C182.201 87.9062 179.409 88.5 175.868 88.5ZM173.493 60.0312H178.805V53.7188C178.805 52.0312 178.597 50.8229 178.18 50.0938C177.763 49.3438 177.138 48.9688 176.305 48.9688C175.409 48.9688 174.711 49.3229 174.211 50.0312C173.732 50.7396 173.493 51.9688 173.493 53.7188V60.0312ZM196.553 88V41.125H207.928V46.3438C208.469 44.5312 209.428 43.1146 210.803 42.0938C212.178 41.0729 213.907 40.5625 215.99 40.5625V49.9062C215.073 49.9062 213.98 50.0104 212.709 50.2188C211.438 50.4062 210.323 50.6771 209.365 51.0312C208.407 51.3646 207.928 51.7396 207.928 52.1562V88H196.553Z" fill="black"/>
<path d="M14.6562 86V3.5H31.0625V32.9844H38.8437V3.5H55.25V86H38.8437V48.5937H31.0625V86H14.6562Z" fill="black"/>
</g>
<mask id="mask2_76_144" style="mask-type:alpha" maskUnits="userSpaceOnUse" x="-4" y="-36" width="234" height="88">
<rect x="-4" y="-36" width="234" height="88" fill="#D9D9D9"/>
</mask>
<g mask="url(#mask2_76_144)">
<path d="M71.7812 92.5C69.1771 92.5 67.1875 91.8958 65.8125 90.6875C64.4583 89.4792 63.5312 87.8229 63.0312 85.7188C62.5312 83.6146 62.2812 81.2292 62.2812 78.5625C62.2812 75.7083 62.5625 73.375 63.125 71.5625C63.6875 69.7292 64.6458 68.2292 66 67.0625C67.375 65.8958 69.2604 64.9062 71.6562 64.0938L78.5938 61.7188V56.9062C78.5938 54.3854 77.7708 53.125 76.125 53.125C74.625 53.125 73.875 54.1458 73.875 56.1875V59H63C62.9792 58.8333 62.9688 58.625 62.9688 58.375C62.9688 58.1042 62.9688 57.8021 62.9688 57.4688C62.9688 52.8021 64.0625 49.5 66.25 47.5625C68.4583 45.6042 71.9479 44.625 76.7188 44.625C79.2188 44.625 81.4583 45.0729 83.4375 45.9688C85.4167 46.8438 86.9792 48.1458 88.125 49.875C89.2917 51.6042 89.875 53.7396 89.875 56.2812V92H78.75V86.4375C78.2083 88.3958 77.3125 89.8958 76.0625 90.9375C74.8125 91.9792 73.3854 92.5 71.7812 92.5ZM76.1875 83.8125C77.1042 83.8125 77.7292 83.4271 78.0625 82.6562C78.3958 81.8854 78.5625 81.0521 78.5625 80.1562V67.0938C77.0208 67.7188 75.8229 68.5104 74.9688 69.4688C74.1146 70.4062 73.6875 71.7917 73.6875 73.625V79.6562C73.6875 82.4271 74.5208 83.8125 76.1875 83.8125ZM110.841 92.5C105.591 92.5 101.862 91.1562 99.6538 88.4688C97.4663 85.7812 96.3725 81.8333 96.3725 76.625V62.1875C96.3725 58.2708 96.7892 55.0104 97.6225 52.4062C98.4558 49.8021 99.9142 47.8542 101.998 46.5625C104.081 45.2708 106.977 44.625 110.685 44.625C113.268 44.625 115.581 45.0833 117.623 46C119.685 46.9167 121.31 48.2604 122.498 50.0312C123.685 51.8021 124.279 53.9688 124.279 56.5312V63.6875H112.873V57.125C112.873 56.0417 112.716 55.1354 112.404 54.4062C112.091 53.6562 111.414 53.2812 110.373 53.2812C108.539 53.2812 107.623 54.5833 107.623 57.1875V79.9062C107.623 80.8646 107.831 81.75 108.248 82.5625C108.664 83.3542 109.352 83.75 110.31 83.75C111.289 83.75 111.966 83.3646 112.341 82.5938C112.737 81.8021 112.935 80.8854 112.935 79.8438V71.9688H124.279V80.1562C124.279 82.7396 123.695 84.9583 122.529 86.8125C121.383 88.6458 119.8 90.0521 117.779 91.0312C115.758 92.0104 113.445 92.5 110.841 92.5ZM130.745 92V37H141.808V61.2812L147.183 45.125H158.776L151.745 65.5L160.683 92H148.776L141.808 69.9062V92H130.745ZM177.868 92.5C174.534 92.5 171.878 91.875 169.899 90.625C167.92 89.375 166.503 87.5729 165.649 85.2188C164.795 82.8646 164.368 80.0312 164.368 76.7188V57.875C164.368 53.5208 165.618 50.2292 168.118 48C170.618 45.75 174.055 44.625 178.43 44.625C187.43 44.625 191.93 49.0417 191.93 57.875V61.2812C191.93 65.4062 191.888 68.1771 191.805 69.5938H175.555V78.6562C175.555 79.4896 175.607 80.3125 175.711 81.125C175.815 81.9167 176.045 82.5729 176.399 83.0938C176.774 83.6146 177.368 83.875 178.18 83.875C179.347 83.875 180.076 83.375 180.368 82.375C180.659 81.3542 180.805 80.0312 180.805 78.4062V73.9062H191.93V76.5625C191.93 80.0625 191.493 83 190.618 85.375C189.763 87.7292 188.305 89.5104 186.243 90.7188C184.201 91.9062 181.409 92.5 177.868 92.5ZM175.493 64.0312H180.805V57.7188C180.805 56.0312 180.597 54.8229 180.18 54.0938C179.763 53.3438 179.138 52.9688 178.305 52.9688C177.409 52.9688 176.711 53.3229 176.211 54.0312C175.732 54.7396 175.493 55.9688 175.493 57.7188V64.0312ZM198.553 92V45.125H209.928V50.3438C210.469 48.5312 211.428 47.1146 212.803 46.0938C214.178 45.0729 215.907 44.5625 217.99 44.5625V53.9062C217.073 53.9062 215.98 54.0104 214.709 54.2188C213.438 54.4062 212.323 54.6771 211.365 55.0312C210.407 55.3646 209.928 55.7396 209.928 56.1562V92H198.553Z" fill="black"/>
<path d="M16.6562 92V9.5H33.0625V38.9844H40.8437V9.5H57.25V92H40.8437V54.5937H33.0625V92H16.6562Z" fill="black"/>
</g>
<mask id="mask3_76_144" style="mask-type:alpha" maskUnits="userSpaceOnUse" x="19" y="7" width="202" height="60">
<mask id="mask4_76_144" style="mask-type:alpha" maskUnits="userSpaceOnUse" x="-27" y="-36" width="281" height="103">
<rect x="-27" y="-36" width="281" height="103" fill="black"/>
</mask>
<g mask="url(#mask4_76_144)">
<path d="M74.7812 90.5C72.1771 90.5 70.1875 89.8958 68.8125 88.6875C67.4583 87.4792 66.5312 85.8229 66.0312 83.7188C65.5312 81.6146 65.2812 79.2292 65.2812 76.5625C65.2812 73.7083 65.5625 71.375 66.125 69.5625C66.6875 67.7292 67.6458 66.2292 69 65.0625C70.375 63.8958 72.2604 62.9062 74.6562 62.0938L81.5938 59.7188V54.9062C81.5938 52.3854 80.7708 51.125 79.125 51.125C77.625 51.125 76.875 52.1458 76.875 54.1875V57H66C65.9792 56.8333 65.9688 56.625 65.9688 56.375C65.9688 56.1042 65.9688 55.8021 65.9688 55.4688C65.9688 50.8021 67.0625 47.5 69.25 45.5625C71.4583 43.6042 74.9479 42.625 79.7188 42.625C82.2188 42.625 84.4583 43.0729 86.4375 43.9688C88.4167 44.8438 89.9792 46.1458 91.125 47.875C92.2917 49.6042 92.875 51.7396 92.875 54.2812V90H81.75V84.4375C81.2083 86.3958 80.3125 87.8958 79.0625 88.9375C77.8125 89.9792 76.3854 90.5 74.7812 90.5ZM79.1875 81.8125C80.1042 81.8125 80.7292 81.4271 81.0625 80.6562C81.3958 79.8854 81.5625 79.0521 81.5625 78.1562V65.0938C80.0208 65.7188 78.8229 66.5104 77.9688 67.4688C77.1146 68.4062 76.6875 69.7917 76.6875 71.625V77.6562C76.6875 80.4271 77.5208 81.8125 79.1875 81.8125ZM113.841 90.5C108.591 90.5 104.862 89.1562 102.654 86.4688C100.466 83.7812 99.3725 79.8333 99.3725 74.625V60.1875C99.3725 56.2708 99.7892 53.0104 100.623 50.4062C101.456 47.8021 102.914 45.8542 104.998 44.5625C107.081 43.2708 109.977 42.625 113.685 42.625C116.268 42.625 118.581 43.0833 120.623 44C122.685 44.9167 124.31 46.2604 125.498 48.0312C126.685 49.8021 127.279 51.9688 127.279 54.5312V61.6875H115.873V55.125C115.873 54.0417 115.716 53.1354 115.404 52.4062C115.091 51.6562 114.414 51.2812 113.373 51.2812C111.539 51.2812 110.623 52.5833 110.623 55.1875V77.9062C110.623 78.8646 110.831 79.75 111.248 80.5625C111.664 81.3542 112.352 81.75 113.31 81.75C114.289 81.75 114.966 81.3646 115.341 80.5938C115.737 79.8021 115.935 78.8854 115.935 77.8438V69.9688H127.279V78.1562C127.279 80.7396 126.695 82.9583 125.529 84.8125C124.383 86.6458 122.8 88.0521 120.779 89.0312C118.758 90.0104 116.445 90.5 113.841 90.5ZM133.745 90V35H144.808V59.2812L150.183 43.125H161.776L154.745 63.5L163.683 90H151.776L144.808 67.9062V90H133.745ZM180.868 90.5C177.534 90.5 174.878 89.875 172.899 88.625C170.92 87.375 169.503 85.5729 168.649 83.2188C167.795 80.8646 167.368 78.0312 167.368 74.7188V55.875C167.368 51.5208 168.618 48.2292 171.118 46C173.618 43.75 177.055 42.625 181.43 42.625C190.43 42.625 194.93 47.0417 194.93 55.875V59.2812C194.93 63.4062 194.888 66.1771 194.805 67.5938H178.555V76.6562C178.555 77.4896 178.607 78.3125 178.711 79.125C178.815 79.9167 179.045 80.5729 179.399 81.0938C179.774 81.6146 180.368 81.875 181.18 81.875C182.347 81.875 183.076 81.375 183.368 80.375C183.659 79.3542 183.805 78.0312 183.805 76.4062V71.9062H194.93V74.5625C194.93 78.0625 194.493 81 193.618 83.375C192.763 85.7292 191.305 87.5104 189.243 88.7188C187.201 89.9062 184.409 90.5 180.868 90.5ZM178.493 62.0312H183.805V55.7188C183.805 54.0312 183.597 52.8229 183.18 52.0938C182.763 51.3438 182.138 50.9688 181.305 50.9688C180.409 50.9688 179.711 51.3229 179.211 52.0312C178.732 52.7396 178.493 53.9688 178.493 55.7188V62.0312ZM201.553 90V43.125H212.928V48.3438C213.469 46.5312 214.428 45.1146 215.803 44.0938C217.178 43.0729 218.907 42.5625 220.99 42.5625V51.9062C220.073 51.9062 218.98 52.0104 217.709 52.2188C216.438 52.4062 215.323 52.6771 214.365 53.0312C213.407 53.3646 212.928 53.7396 212.928 54.1562V90H201.553Z" fill="black"/>
<path d="M19.6562 90V7.5H36.0625V36.9844H43.8437V7.5H60.25V90H43.8437V52.5937H36.0625V90H19.6562Z" fill="black"/>
</g>
</mask>
<g mask="url(#mask3_76_144)">
<rect x="18" y="49" width="206" height="18" fill="black"/>
</g>
</g>
</svg>
